<svg width="24" height="24" viewBox="0 0 24 24" fill="none" xmlns="http://www.w3.org/2000/svg">
<path d="M19.3278 5.77229C18.7999 5.62975 18.4937 5.9465 18.1559 6.15766C14.4464 8.48048 10.7422 10.8209 7.04333 13.1789C6.87053 13.307 6.66828 13.3897 6.45518 13.4192C6.24208 13.4487 6.02498 13.4242 5.82385 13.3478C4.43544 12.8885 3.0312 12.482 1.63751 12.0492C1.15183 11.8961 0.449707 11.8591 0.449707 11.2256C0.449707 10.5921 1.10432 10.4021 1.61111 10.2067C4.7082 9.01719 7.79473 7.8329 10.8707 6.6539C14.3919 5.30244 17.913 3.94043 21.4289 2.59425C21.9832 2.38309 22.5692 1.98188 23.1499 2.51507C23.7306 3.04826 23.5353 3.69231 23.4086 4.30997C22.8807 6.90202 22.3158 9.48879 21.7615 12.0808C21.1597 14.8577 20.5667 17.6345 19.9825 20.4113C19.6763 21.8419 18.9266 22.127 17.7494 21.2612C16.3451 20.2371 14.9198 19.2393 13.5683 18.1413C12.9084 17.6134 12.5125 17.6661 11.9846 18.2785C11.4567 18.8909 10.8021 19.4347 10.2002 20.0048C10.0366 20.1526 9.84127 20.3215 9.61426 20.2054C9.38726 20.0893 9.45589 19.8728 9.45061 19.6775C9.42421 18.2732 9.41366 16.8637 9.35559 15.4542C9.35877 15.2784 9.40583 15.1061 9.49249 14.9531C9.57915 14.8 9.70267 14.671 9.85182 14.5779C12.787 11.9172 15.7275 9.25123 18.6732 6.57999C18.9266 6.36883 19.217 6.20517 19.3278 5.77229Z" fill="white"/>
</svg>
