<svg width="24" height="24" viewBox="0 0 24 24" fill="none" xmlns="http://www.w3.org/2000/svg">
<path fill-rule="evenodd" clip-rule="evenodd" d="M11.9417 1.22986C9.34078 1.26309 6.83483 2.21227 4.86452 3.91047C2.89421 5.60868 1.58571 7.94717 1.16912 10.5148C0.75252 13.0823 1.2545 15.7146 2.58679 17.9486C3.91908 20.1827 5.99636 21.8755 8.45337 22.7294C9.0062 22.8234 9.21627 22.4917 9.21627 22.1766C9.21627 21.8615 9.21627 21.0709 9.21627 20.1201C6.45212 20.6342 5.72791 19.4456 5.50678 18.8264C5.27012 18.2248 4.89066 17.6898 4.40112 17.2675C4.01414 17.0629 3.46131 16.5488 4.40112 16.5377C5.34093 16.5267 5.88824 17.3338 6.09831 17.6434C6.24928 17.9142 6.45212 18.1527 6.69525 18.3451C6.93839 18.5375 7.21705 18.6801 7.51532 18.7648C7.81359 18.8496 8.12563 18.8747 8.43361 18.8388C8.74159 18.8028 9.03947 18.7066 9.31025 18.5556C9.3596 17.9952 9.60879 17.4713 10.0123 17.0795C7.55778 16.8031 4.99265 15.8522 4.99265 11.6341C4.97873 10.5364 5.38405 9.47464 6.12595 8.66542C5.78762 7.71419 5.8272 6.66939 6.23652 5.74648C6.23652 5.74648 7.15974 5.45348 9.27156 6.85214C11.0808 6.35525 12.9906 6.35525 14.7999 6.85214C16.9117 5.42031 17.8349 5.74648 17.8349 5.74648C18.2442 6.66939 18.2838 7.71419 17.9455 8.66542C18.6798 9.47739 19.0754 10.5396 19.0511 11.6341C19.0511 15.8633 16.4694 16.8031 14.0148 17.0795C14.275 17.3567 14.4716 17.6872 14.5909 18.0481C14.7103 18.409 14.7495 18.7916 14.7059 19.1692C14.7059 20.6453 14.7059 21.8338 14.7059 22.2042C14.7059 22.5746 14.9159 22.84 15.4688 22.7571C17.9483 21.916 20.0489 20.2223 21.3965 17.9775C22.7442 15.7328 23.2516 13.0826 22.8282 10.4987C22.4049 7.91492 21.0784 5.56518 19.0848 3.86783C17.0912 2.17049 14.56 1.23569 11.9417 1.22986V1.22986Z" fill="white"/>
</svg>
