<svg width="24" height="24" viewBox="0 0 24 24" fill="none" xmlns="http://www.w3.org/2000/svg">
<path d="M23.25 5.02141C22.4226 5.37834 21.5221 5.63522 20.5947 5.73527C21.5519 5.16472 22.2793 4.26429 22.6227 3.19351C21.7385 3.72079 20.738 4.10746 19.6969 4.30755C18.8533 3.40712 17.6554 2.8501 16.3278 2.8501C13.7725 2.8501 11.7174 4.92136 11.7174 7.46313C11.7174 7.82005 11.7607 8.17698 11.831 8.52039C8.00484 8.3203 4.59239 6.49239 2.32373 3.69375C1.92354 4.38056 1.6964 5.16472 1.6964 6.02189C1.6964 7.62266 2.51031 9.03415 3.75144 9.86428C2.99432 9.83454 2.28047 9.62092 1.66666 9.27751V9.3343C1.66666 11.5759 3.2512 13.4336 5.36303 13.8608C4.97636 13.9608 4.56264 14.0176 4.14893 14.0176C3.84879 14.0176 3.56487 13.9879 3.27824 13.9473C3.86231 15.7752 5.56312 17.1029 7.58842 17.1462C6.00388 18.3873 4.01914 19.1174 1.86405 19.1174C1.47738 19.1174 1.12045 19.1039 0.75 19.0606C2.79423 20.372 5.21972 21.1292 7.83178 21.1292C16.3115 21.1292 20.9516 14.1042 20.9516 8.00663C20.9516 7.80653 20.9516 7.60644 20.9381 7.40634C21.8358 6.74927 22.6227 5.93536 23.25 5.02141Z" fill="white"/>
</svg>
