<svg width="24" height="24" viewBox="0 0 24 24" fill="none" xmlns="http://www.w3.org/2000/svg">
<path d="M6.0205 20.5616C6.11807 20.5616 6.23619 20.5976 6.30295 20.5154C6.74461 20.0019 7.18113 19.4575 7.63306 18.9029C6.38089 18.5494 5.25289 17.852 4.37713 16.8897C4.32577 16.7665 4.37713 16.7511 4.48497 16.7819C5.16094 17.1464 5.85707 17.4721 6.57 17.7576C8.91074 18.6765 11.4427 19.0012 13.9395 18.7026C16.005 18.4225 17.9947 17.7366 19.794 16.6843C19.907 16.7151 19.794 16.7665 19.794 16.8076C19.794 16.8487 19.6708 16.9668 19.604 17.0387C18.8024 17.8583 17.8058 18.4609 16.7076 18.7899C16.384 18.8926 16.3738 18.9902 16.5946 19.2264C16.9181 19.5859 17.2262 19.9608 17.519 20.346C17.5687 20.4232 17.6399 20.4842 17.7238 20.5216C17.8078 20.559 17.9007 20.5712 17.9914 20.5565C19.843 20.4661 21.6126 19.7655 23.0243 18.5639C23.7587 17.9271 24.19 17.2235 23.9179 16.2221C23.9151 16.1931 23.9151 16.1638 23.9179 16.1348C23.6966 13.0361 22.9679 9.99476 21.7609 7.13221C21.5695 6.58962 21.2726 6.09024 20.8875 5.66279C20.5023 5.23534 20.0365 4.88824 19.5167 4.64147C18.2832 4.02685 16.9551 3.62408 15.588 3.45002C15.3466 3.45002 15.1104 3.48597 15.0745 3.71707C15.0385 3.94817 15.321 3.88654 15.4648 3.9379C16.8532 4.3708 18.1689 5.00958 19.3678 5.83291C19.3678 5.88941 19.4499 5.91508 19.4602 5.97671C19.3986 5.94076 19.3267 5.97671 19.2651 5.93563C19.1059 5.874 18.9467 5.81751 18.7875 5.74561C15.6255 4.36754 12.1236 3.96691 8.73206 4.59525C7.11099 4.8893 5.53606 5.39701 4.04845 6.1051C4.0125 6.1051 3.97655 6.14105 3.94574 6.1051C3.91493 6.06915 3.94574 6.04347 3.94574 6.01779C5.35114 5.0244 6.91359 4.27442 8.56773 3.79924C8.67044 3.76843 8.84505 3.79924 8.82964 3.64004C8.81423 3.48084 8.6499 3.45002 8.49583 3.45002H8.32122C6.43949 3.67045 4.64797 4.37856 3.12405 5.50424C2.99814 5.5979 2.89754 5.72145 2.83133 5.86373C1.0913 9.34399 0.125927 13.1599 0.00164572 17.0489C-0.0147753 17.3612 0.0922046 17.6674 0.299507 17.9014C1.01425 18.72 1.89265 19.3797 2.87805 19.8379C3.86344 20.2961 4.93395 20.5427 6.0205 20.5616ZM15.7061 11.0558C15.9927 11.0715 16.2733 11.1437 16.5319 11.2682C16.7904 11.3928 17.0218 11.5672 17.2127 11.7815C17.4036 11.9958 17.5503 12.2457 17.6443 12.5169C17.7383 12.7881 17.7777 13.0751 17.7603 13.3616C17.7662 13.9311 17.5503 14.4805 17.1582 14.8936C16.7662 15.3067 16.2289 15.5511 15.6599 15.575C15.0846 15.5381 14.5459 15.2802 14.1564 14.8552C13.7668 14.4303 13.5566 13.8712 13.5697 13.2949C13.5587 13.0065 13.6057 12.7188 13.7079 12.449C13.8101 12.1791 13.9653 11.9324 14.1646 11.7236C14.3638 11.5148 14.6028 11.3482 14.8676 11.2334C15.1324 11.1187 15.4176 11.0583 15.7061 11.0558ZM8.13634 11.0558C8.42292 11.0591 8.70598 11.1193 8.96906 11.233C9.23214 11.3467 9.46999 11.5115 9.66878 11.718C9.86758 11.9244 10.0233 12.1683 10.127 12.4355C10.2307 12.7027 10.2802 12.9878 10.2727 13.2743C10.2979 13.8567 10.0917 14.4254 9.69918 14.8564C9.30666 15.2874 8.75964 15.5458 8.17743 15.575C7.89207 15.5632 7.61185 15.4951 7.35282 15.3748C7.09378 15.2545 6.86101 15.0843 6.66783 14.874C6.47464 14.6636 6.32484 14.4172 6.22698 14.1489C6.12912 13.8806 6.08513 13.5956 6.09753 13.3103C6.08022 13.0274 6.11949 12.7439 6.21305 12.4764C6.30662 12.2089 6.4526 11.9627 6.64244 11.7523C6.83229 11.5419 7.0622 11.3715 7.31871 11.251C7.57522 11.1305 7.85319 11.0624 8.13634 11.0506V11.0558Z" fill="white"/>
</svg>
