<svg width="16" height="16" viewBox="0 0 16 16" fill="none" xmlns="http://www.w3.org/2000/svg">
<path fill-rule="evenodd" clip-rule="evenodd" d="M15.2071 0.792893C15.5976 1.18342 15.5976 1.81658 15.2071 2.20711L9.41421 8L15.2071 13.7929C15.5976 14.1834 15.5976 14.8166 15.2071 15.2071C14.8166 15.5976 14.1834 15.5976 13.7929 15.2071L7.29289 8.70711C6.90237 8.31658 6.90237 7.68342 7.29289 7.29289L13.7929 0.792893C14.1834 0.402369 14.8166 0.402369 15.2071 0.792893Z" fill="white"/>
<path fill-rule="evenodd" clip-rule="evenodd" d="M0.792893 0.792893C0.402369 1.18342 0.402369 1.81658 0.792893 2.20711L6.58579 8L0.792893 13.7929C0.402369 14.1834 0.402369 14.8166 0.792893 15.2071C1.18342 15.5976 1.81658 15.5976 2.20711 15.2071L8.70711 8.70711C9.09763 8.31658 9.09763 7.68342 8.70711 7.29289L2.20711 0.792893C1.81658 0.402369 1.18342 0.402369 0.792893 0.792893Z" fill="white"/>
</svg>
