<?xml version="1.0" encoding="utf-8"?>
<!-- Generator: Adobe Illustrator 27.8.1, SVG Export Plug-In . SVG Version: 6.00 Build 0)  -->
<svg version="1.1" id="Layer_1" xmlns="http://www.w3.org/2000/svg" xmlns:xlink="http://www.w3.org/1999/xlink" x="0px" y="0px"
	 viewBox="0 0 81 22" style="enable-background:new 0 0 81 22;" xml:space="preserve">
<style type="text/css">
	.st0{fill:#FFFFFF;}
	.st1{fill:url(#SVGID_1_);}
</style>
<g>
	<path class="st0" d="M25,15.5h-5.2l-0.3,0.3v3h-1.1v-3.3L19,15l-0.5-0.5v-2.2l1.1-1.1H25v1.1h-5.2l-0.3,0.3v1.5l0.3,0.3H25V15.5z"
		/>
	<path class="st0" d="M26.7,13.3v4.1l0.3,0.3h2.6l0.3-0.3v-4.1h1.1v4.4L30,18.8h-3.3l-1.1-1.1v-4.4H26.7z"/>
	<path class="st0" d="M36,18.8h-3.3l-1.1-1.1v-3.3l0.5-0.5l-0.5-0.5v-1.1h1.1V13l0.3,0.3h3v1.1h-3l-0.3,0.3v2.6l0.3,0.3h3V18.8z"/>
	<path class="st0" d="M37.7,13.3v4.1l0.3,0.3h2.6l0.3-0.3v-4.1h1.1v4.4L41,18.8h-3.3l-1.1-1.1v-4.4H37.7z"/>
	<path class="st0" d="M47,13.3v1.1h-3l-0.3,0.3v4.1h-1.1v-4.4l1.1-1.1H47z"/>
	<path class="st0" d="M48.7,13.3H52l1.1,1.1v2.2h-4.4v0.8l0.3,0.3h4.1v1.1h-4.4l-1.1-1.1v-3.3L48.7,13.3z M51.6,14.4H49l-0.3,0.3
		v0.8H52v-0.8L51.6,14.4z"/>
	<path class="st0" d="M66.9,11.1v6.6l-1.1,1.1h-1.1L62,16.1l-2.7,2.7h-1.1L57,17.7v-6.6h1.1v6.3l0.3,0.3h0.4l2.5-2.5v-4.1h1.1v4.1
		l2.5,2.5l0.4,0l0.3-0.3v-6.3H66.9z"/>
	<path class="st0" d="M67.5,13.3h1.1v5.5h-1.1V13.3z"/>
	<path class="st0" d="M70.2,13.3h1.1l2.2,2.2v-2.2h1.1v5.5h-1.1V17L71,14.4h-0.4l-0.3,0.3v4.1h-1.1v-4.4L70.2,13.3z"/>
	<path class="st0" d="M80.6,19.9L79.5,21h-4.4v-1.1h4.1l0.3-0.3v-0.8h-3.3l-1.1-1.1v-3.3l1.1-1.1h4.4V19.9z M79.5,17.7v-3.3h-3
		l-0.3,0.3v2.6l0.3,0.3H79.5z"/>
</g>
<linearGradient id="SVGID_1_" gradientUnits="userSpaceOnUse" x1="0.4158" y1="10.063" x2="18.5301" y2="10.063">
	<stop  offset="5.586592e-03" style="stop-color:#AD8659"/>
	<stop  offset="0.2284" style="stop-color:#C59C68"/>
	<stop  offset="0.4751" style="stop-color:#D8AE73"/>
	<stop  offset="0.7292" style="stop-color:#E3B97A"/>
	<stop  offset="1" style="stop-color:#E7BC7C"/>
</linearGradient>
<path class="st1" d="M5.3,4.5l0.7,0.4c0,0,0,0,0,0l4.5,2.7L8.6,8.7L1.2,4.5c0,0-0.1,0-0.1,0c0,0,0,0,0,0c0,0-0.1,0-0.1,0
	c0,0,0,0,0,0c0,0-0.1,0-0.1,0c0,0,0,0,0,0c-0.1,0-0.1,0-0.2,0c0,0,0,0,0,0c0,0,0,0,0,0c0,0,0,0,0,0c0,0,0,0,0,0c0,0,0,0-0.1,0.1
	c0,0,0,0,0,0c0,0,0,0-0.1,0.1c0,0,0,0,0,0c0,0,0,0,0,0c0,0,0,0.1,0,0.1c0,0,0,0,0,0c0,0,0,0.1,0,0.1c0,0,0,0,0,0c0,0,0,0,0,0.1v3.6
	c0,0.2,0.1,0.4,0.3,0.5l1.9,1.2v2.1c0,0.2,0.1,0.4,0.3,0.5l2.2,1.3v0.3v1.8c-0.2,0.1-0.4,0.2-0.5,0.4c-0.3,0.3-0.4,0.7-0.4,1
	c0,0.4,0.2,0.7,0.5,1c0.3,0.3,0.6,0.4,1,0.4c0,0,0,0,0.1,0c0.4,0,0.7-0.2,1-0.5c0.3-0.3,0.4-0.7,0.4-1c0-0.6-0.4-1.1-0.9-1.3v-1.8
	v-0.6V8.6l1.9,1.1l0,8.9c0,0.2,0.1,0.4,0.3,0.5c0.1,0,0.2,0.1,0.3,0.1c0.1,0,0.2,0,0.3-0.1l2.9-1.9c0.1-0.1,0.2-0.3,0.2-0.4v-2.1
	l2.2-1.5c0.2-0.1,0.3-0.3,0.3-0.5V10l1.6-1c0.3,0.2,0.6,0.3,0.9,0.3c0,0,0,0,0.1,0c0.8,0,1.4-0.7,1.4-1.5v0c0-0.8-0.7-1.4-1.5-1.4
	c-0.8,0-1.4,0.7-1.4,1.5c0,0,0,0.1,0,0.1l-1.9,1.2c0,0,0,0,0,0L9.2,12V9.7l7.2-4.4c0.2-0.1,0.3-0.3,0.3-0.4c0,0,0,0,0,0
	c0-0.1,0-0.2-0.1-0.3c-0.1-0.1-0.2-0.2-0.3-0.2l-2.6-1.7c-0.2-0.1-0.4-0.1-0.6,0L11,3.7L8.9,2.4c-0.2-0.1-0.4-0.1-0.6,0L6.2,3.8
	L5.8,3.5L4.7,2.9c0.1-0.2,0.1-0.3,0.1-0.5C4.7,1.6,4.1,1,3.3,1C2.5,1,1.8,1.7,1.9,2.5c0,0.8,0.7,1.4,1.4,1.4c0,0,0,0,0.1,0
	c0.2,0,0.5-0.1,0.7-0.2L5.3,4.5z M3.3,2.8c-0.2,0-0.4-0.2-0.4-0.4c0-0.2,0.2-0.4,0.4-0.4c0,0,0,0,0,0c0.2,0,0.4,0.2,0.4,0.4v0
	c0,0.1,0,0.2-0.1,0.3C3.5,2.8,3.4,2.8,3.3,2.8z M11.5,7L7.2,4.4l1.4-0.9l2.1,1.3c0.2,0.1,0.4,0.1,0.5,0l2.1-1.2l1.7,1.1L11.5,7
	C11.5,7,11.5,7,11.5,7z M3.7,12V9.9c0-0.2-0.1-0.4-0.3-0.5L1.5,8.3V5.9L5.1,8c0,0.1,0,0.1,0,0.2v4.8L3.7,12z M6,17.6
	c0,0.1,0,0.2-0.1,0.3C5.9,18,5.8,18,5.7,18c-0.1,0-0.2,0-0.3-0.1c-0.1-0.1-0.1-0.2-0.1-0.3c0-0.1,0-0.2,0.1-0.3
	c0.1-0.1,0.2-0.1,0.3-0.1c0,0,0,0,0,0C5.9,17.3,6,17.4,6,17.6L6,17.6z M13.5,12.4l-2.2,1.5c-0.2,0.1-0.3,0.3-0.3,0.5v2.1l-1.8,1.2
	v-4.4c0.1,0,0.1,0,0.2-0.1l4.1-2.5V12.4z M17.1,8.3c-0.2,0-0.4-0.2-0.4-0.4c0-0.2,0.2-0.4,0.4-0.4c0,0,0,0,0,0
	c0.2,0,0.4,0.2,0.4,0.4C17.5,8.1,17.3,8.3,17.1,8.3z"/>
</svg>
