<?xml version="1.0" encoding="utf-8"?>
<!-- Generator: Adobe Illustrator 27.3.1, SVG Export Plug-In . SVG Version: 6.00 Build 0)  -->
<svg version="1.1" id="Layer_1" xmlns="http://www.w3.org/2000/svg" xmlns:xlink="http://www.w3.org/1999/xlink" x="0px" y="0px"
	 viewBox="0 0 210 118" style="enable-background:new 0 0 210 118;" xml:space="preserve">
<style type="text/css">
	.st0{fill:#FFFFFF;}
</style>
<path class="st0" d="M122.8,103.2c-2.7,5.4-5.4,6.7-11.6,5.8c-1.2,3.8-3.7,6.3-7.8,6.7c-4.1,0.5-7-1.8-9.2-5.2
	c-2.4,2.2-5.1,3.3-8.3,2.3c-3.1-1-4.8-3.3-5.3-6.5c-5.3,4.2-11.9,1.9-13.4-4.5c-3.7,1.5-7.1,1-9.6-2.2c-2.6-3.2-2.1-6.6,0.2-10
	c-2.9-1.4-4.7-3.5-4.9-6.7c-0.2-2.7,0.8-4.9,2.8-6.6c2.2-1.8,4.3-3.5,6.6-5.4c-3.3-4.3-6.6-8.5-9.7-12.4c-2,0.3-3.7,0.8-5.5,0.8
	c-2.5,0-4.6-1.3-6.2-3.2c-1.5-1.8-2.9-3.6-4.3-5.4c-3.6-4.7-3-9.9,1.7-13.6c8.4-6.6,16.8-13.2,25.2-19.8c3.2-2.5,6.5-5.1,9.7-7.6
	c4.4-3.4,9.6-2.8,13.2,1.5c1.1,1.4,2.2,2.9,3.4,4.3c3.9,4.9,3.9,8.6,0,13.5c1.4,1.8,2.8,3.6,4.3,5.4c0.3,0.3,1,0.6,1.5,0.5
	c8.6-1.6,17.2-3.2,25.8-4.9c0.5-0.1,1.1-0.4,1.5-0.8c1.7-1.7,3.4-3.6,5.1-5.5c-0.7-0.9-1.4-1.8-2.1-2.8c-3.1-4.2-2.4-9.5,1.7-12.7
	c1.9-1.5,3.8-3,5.7-4.4c4.1-3,9.5-2.4,12.6,1.6c9.4,12,18.7,24,27.9,36.1c3,4,2.4,9.2-1.4,12.4c-2,1.7-4,3.3-6.2,4.8
	c-2.5,1.8-5.3,2.2-8.2,1.3c-0.4-0.1-1.1-0.1-1.4,0.1c-6,4.9-12,9.9-17.7,14.7c2.4,3.3,5.7,5.9,6.8,10.1c1.4,5.4-2.8,10.7-8.5,10.7
	c-0.5,0-1,0-1.4,0C134.5,102.5,128.8,105.5,122.8,103.2z M97.6,107.8c0.4,0.6,0.8,1,1.2,1.5c1.8,2.3,4.4,2.7,6.4,1.1
	c2-1.6,2.1-4.3,0.3-6.5c-3.2-4.1-6.4-8.1-9.5-12.2c-1-1.3-0.9-2.5,0.1-3.4c1-0.8,2.4-0.6,3.3,0.6c1.1,1.4,2.2,2.8,3.3,4.2
	c2.6,3.4,5.3,6.7,7.9,10.1c1.1,1.4,2.5,2.1,4.3,1.8c1.7-0.3,2.9-1.3,3.4-2.9c0.6-1.7,0.1-3.2-1-4.5c-3.1-4-6.3-7.9-9.4-11.9
	c-1.2-1.5-1.2-2.7-0.1-3.6c1.2-1,2.4-0.7,3.6,0.9c1.2,1.5,2.4,3,3.5,4.5c2.7,3.4,5.4,6.9,8.1,10.3c2.3,2.8,6.3,2.3,7.5-0.9
	c0.7-1.7,0.3-3.2-0.8-4.7c-3.9-4.9-7.8-9.9-11.6-14.8c-1.1-1.4-1-2.6,0.1-3.5c1.1-0.8,2.4-0.6,3.4,0.8c1.2,1.5,2.4,3,3.5,4.5
	c2.8,3.5,5.5,7.1,8.4,10.6c1.2,1.4,2.7,2,4.6,1.5c1.9-0.6,3-1.9,3-3.7c0-1.1-0.4-2.5-1.1-3.4c-7.5-9.8-15-19.5-22.6-29.2
	c-0.3-0.4-1-0.8-1.5-0.9c-2.3-0.5-4.6-0.7-6.9-1.2c-0.9-0.2-1.4,0-2,0.8c-2.2,3-4.5,6-6.8,8.9c-1.7,2.1-3.8,3.5-6.4,4.2
	c-4.9,1.4-9-0.8-10-5.8c-0.5-2.4-0.4-5-0.1-7.4c0.8-5.3,3-10.1,6-14.5c0.3-0.4,0.4-1.3,0.2-1.6c-1.2-1.8-2.6-3.4-4-5.2
	c-10.1,8-20.2,15.9-30.4,23.8c3.4,4.3,6.6,8.4,9.8,12.5c7.5-3.1,11.6-0.8,12.7,7.2c5.6,0.8,8,5,7.3,9.5c5.1,1.1,7.4,4.3,6.9,9.5
	c3.5,0.2,5.9,1.8,7.1,5C100.8,102.6,99.9,105.4,97.6,107.8z M130.8,27.6c-1.8,1.9-3.4,3.7-5.2,5.4c-0.7,0.7-1.7,1.3-2.6,1.5
	c-9,1.8-18.1,3.4-27.1,5.1c-0.6,0.1-1.5,0.5-1.8,1.1c-1.7,3.2-3.5,6.3-4.9,9.6c-1.1,2.7-1.5,5.6-1.2,8.5c0.3,3.2,2.4,4.5,5.2,3.1
	c1.5-0.7,3-1.9,4.1-3.2c2.6-3.1,5-6.4,7.4-9.7c0.8-1,1.7-1.4,2.9-1.2c2.9,0.5,5.8,1.1,8.7,1.4c2.2,0.3,3.6,1.2,4.9,3
	c4.5,5.9,9.1,11.6,13.6,17.4c0.4,0.5,0.8,1,1.3,1.6c5.7-4.8,11.4-9.4,17-14.1C145.9,47.2,138.4,37.4,130.8,27.6z M47.6,55.5
	c1.3-0.6,2.3-0.9,3.1-1.4c1.5-1,2.9-2.2,4.3-3.3c10.3-8.1,20.7-16.2,31-24.3c2.6-2.1,2.9-4.6,0.8-7.3c-1.3-1.7-2.6-3.3-3.9-5
	c-1.9-2.3-4.5-2.7-6.9-0.8c-11.8,9.2-23.6,18.5-35.4,27.8c-2.2,1.7-2.5,4.4-0.8,6.6c1.4,1.9,2.8,3.8,4.4,5.5
	C45.1,54.3,46.4,54.8,47.6,55.5z M161.1,56.4c0.9-0.4,1.9-0.7,2.7-1.2c1.8-1.2,3.4-2.6,5.1-3.9c2.7-2.2,3-4.6,0.9-7.4
	c-5.6-7.3-11.2-14.5-16.8-21.7c-3.5-4.5-6.9-9-10.5-13.5c-1.6-2.1-4.1-2.7-6.1-1.3c-2.3,1.6-4.4,3.3-6.5,5c-1.4,1.2-1.9,3-1.1,4.7
	c0.7,1.6,1.3,3.5,3.6,3.7c0.6,0,1.2,0.6,1.6,1.1c1.3,1.7,2.5,3.4,3.7,5.1c6.4,8.9,12.7,17.8,19,26.7
	C157.8,55.2,159.1,56.2,161.1,56.4z M64.1,98.3c0.3-0.2,1.2-0.4,1.8-0.9c4.7-3.7,9.3-7.5,14-11.3c1.6-1.3,1.9-3.3,0.8-4.8
	c-1.2-1.5-3.2-1.6-4.8-0.3c-1.7,1.3-3.3,2.6-4.9,4c-3,2.5-6.1,4.9-9.1,7.4c-1.3,1.1-1.7,2.4-1.1,3.8C61.1,97.5,62.1,98.2,64.1,98.3z
	 M75.4,104.1c0.4-0.2,1.3-0.5,1.9-1c3.2-2.5,6.3-5.1,9.5-7.6c1.6-1.3,1.9-3.2,0.8-4.7c-1.1-1.5-3.2-1.7-4.8-0.5c-1,0.8-2,1.6-3,2.4
	c-2.3,1.8-4.6,3.7-6.8,5.6c-1.2,1-1.6,2.2-1,3.7C72.4,103.4,73.4,104.1,75.4,104.1z M61,85.9c0.4-0.2,1.3-0.5,1.9-1
	c3.2-2.5,6.3-5.1,9.5-7.6c1.6-1.3,1.9-3.2,0.7-4.7C72,71,70,70.8,68.3,72.1c-1,0.7-1.9,1.5-2.9,2.3c-2.3,1.9-4.7,3.7-6.9,5.7
	c-1.2,1-1.6,2.2-1,3.7C58,85.1,59.1,85.8,61,85.9z M88.4,108.8c0.2-0.1,0.7-0.1,1-0.3c1.9-1.5,3.8-2.9,5.6-4.5c1-0.9,0.8-2.7,0-3.8
	c-0.9-1.1-2.5-1.6-3.7-0.8c-1.9,1.3-3.8,2.8-5.5,4.4c-0.9,0.8-1,2.1-0.4,3.3C85.9,108.2,86.9,108.8,88.4,108.8z"/>
</svg>
