<?xml version="1.0" encoding="utf-8"?>
<!-- Generator: Adobe Illustrator 27.3.1, SVG Export Plug-In . SVG Version: 6.00 Build 0)  -->
<svg version="1.1" id="Layer_1" xmlns="http://www.w3.org/2000/svg" xmlns:xlink="http://www.w3.org/1999/xlink" x="0px" y="0px"
	 viewBox="0 0 210 118" style="enable-background:new 0 0 210 118;" xml:space="preserve">
<g>
	<path d="M59.8,22.8c0,1.7,0,3.2,0,4.7c0,0.9-0.2,1.6-1.1,1.9c-0.9,0.3-1.5,0-2.1-0.7c-3.3-3.8-6.7-7.5-10.1-11.2
		c-1-1.1-1-1.8,0-2.9c3.3-3.7,6.6-7.4,9.9-11.1c0.6-0.6,1.2-1.2,2.2-0.9c1,0.4,1.2,1.2,1.2,2.1c0,1.5,0,3,0,4.6c0.6,0,1.1,0,1.6,0
		c15.1,0,30.1-0.2,45.2,0.1c13,0.2,24.2,5.3,33.3,14.6c10.2,10.4,14.9,23.1,14,37.6c-0.6,10.4-4.5,19.7-11,27.8
		c-0.6,0.8-1.4,1.1-2.4,1.1c-4.5,0-8.9,0-13.4,0c-1,0-1.9-0.1-2.2-1.2c-0.3-1.1,0.3-1.7,1.1-2.3c7.6-5.6,12.3-13.1,14.1-22.3
		c3.5-17.9-7.7-35.8-25.5-40.7c-3.2-0.9-6.5-1.3-9.8-1.3c-14.5,0-29.1,0-43.6,0C60.6,22.8,60.3,22.8,59.8,22.8z M56.3,8.8
		c-2.3,2.6-4.4,4.9-6.6,7.3c2.2,2.4,4.3,4.8,6.5,7.3c0-0.5,0.1-0.7,0.1-0.9c0.1-2.9,0.3-3.1,3.2-3.1c14.7,0,29.5,0,44.2,0
		c2.6,0,5.2,0.2,7.7,0.6c17.3,2.9,30.6,17.2,32.2,34.6c0.9,10.1-1.7,19.2-7.8,27.3c-1.4,1.8-2.9,3.4-4.5,5.3c2.7,0,5.3,0,7.8,0
		c0.8,0,1.2-0.3,1.7-0.9c8-10.7,11.1-22.5,8.9-35.7c-3.5-21.3-22.6-37.7-44.2-37.8c-15.4-0.1-30.8,0-46.2,0c-2.8,0-3-0.2-3.1-3.1
		C56.4,9.5,56.4,9.3,56.3,8.8z"/>
	<path d="M150.2,93.8c0-1.6,0-3.1,0-4.6c0-0.9,0.2-1.6,1.1-2c0.9-0.3,1.6,0.1,2.2,0.8c3.3,3.7,6.7,7.4,10,11.2c1,1.1,1,1.8,0,2.9
		c-3.3,3.7-6.7,7.4-10,11.2c-0.6,0.7-1.2,1.2-2.2,0.8c-0.8-0.3-1.1-1-1.1-1.8c0-1.6,0-3.2,0-4.9c-0.6,0-1.1,0-1.5,0
		c-15,0-30,0.1-45.1-0.1c-11.3-0.1-21.2-4-29.9-11.2C64.9,88.6,59.1,79.2,57,67.8c-2.8-15.1,0.7-28.6,10.3-40.6c0.6-0.7,1.3-1,2.2-1
		c4.6,0,9.1,0,13.7,0c0.9,0,1.8,0.2,2.1,1.2c0.4,1.1-0.3,1.7-1.1,2.3c-7.6,5.6-12.3,13.1-14.1,22.3c-3.1,15.6,5.4,32,19.9,38.7
		c4.7,2.2,9.7,3.3,14.9,3.3c14.8,0,29.6,0,44.3,0C149.5,93.9,149.8,93.8,150.2,93.8z M78.4,29.6c-2.6,0-5.1,0-7.7,0
		c-0.8,0-1.2,0.2-1.7,0.8c-10,13.5-12.5,28.3-6.6,44.1c6.8,18.2,23.6,29.4,43,29.4c15.1,0,30.2,0,45.3,0c0.4,0,0.7,0,1.1,0
		c1.1,0.1,1.7,0.7,1.8,1.7c0.1,0.7,0,1.3,0,2.3c2.4-2.6,4.5-5,6.6-7.4c-2.2-2.4-4.3-4.8-6.6-7.3c0,0.5,0,0.7,0,0.9
		c0,2.9-0.3,3.1-3.2,3.1c-14.8,0-29.6,0-44.3,0c-4.7,0-9.4-0.6-13.9-2.2c-24-8.2-33.9-37.7-19.5-58.5C74.5,34.1,76.5,31.9,78.4,29.6
		z"/>
	<path d="M128.3,42.6c-0.5,0.9-0.8,1.8-1.4,2.5c-1.1,1.4-1.4,2.8-0.8,4.5c0.6,1.6,1.9,2.5,3.6,2.6c2.6,0.2,3.7,1.5,3.7,4.1
		c0,1.4,0,2.8,0,4.2c0,2.5-1.1,3.8-3.6,4c-1.8,0.2-3,1-3.7,2.6c-0.7,1.7-0.4,3.2,0.8,4.6c1.5,1.8,1.4,3.5-0.2,5.2
		c-1,1.1-2.1,2.1-3.1,3.1c-1.8,1.8-3.4,1.8-5.4,0.2c-1.8-1.5-4.2-1.5-5.7,0.1c-0.6,0.7-1.1,1.7-1.2,2.6c-0.4,2.7-1.5,3.8-4.2,3.8
		c-1.4,0-2.9,0-4.3,0c-2.3-0.1-3.6-1.2-3.8-3.5c-0.2-1.9-0.9-3.2-2.7-3.9c-1.7-0.7-3.2-0.2-4.6,1c-1.6,1.4-3.3,1.3-4.8-0.2
		c-1.1-1-2.2-2.1-3.2-3.2c-1.9-1.9-2-3.5-0.3-5.6c1.5-1.9,1.4-4.4-0.4-5.9c-0.7-0.5-1.6-0.9-2.5-1c-2.6-0.4-3.7-1.5-3.8-4.2
		c0-1.4,0-2.8,0-4.2c0-2.5,1.1-3.7,3.6-4c1.8-0.2,3.1-1,3.8-2.6c0.6-1.7,0.3-3.2-0.9-4.5c-1.5-1.7-1.4-3.5,0.2-5.1
		c1-1.1,2.1-2.1,3.1-3.1c1.9-1.8,3.4-1.9,5.5-0.3c2.4,1.9,5.7,1.1,6.7-1.7c0.1-0.4,0.2-0.8,0.2-1.3c0.3-2.5,1.5-3.6,4-3.7
		c1.4,0,2.8,0,4.2,0c2.7,0,3.8,1.1,4.1,3.8c0.3,2.6,2.3,4.3,4.9,3.8c0.8-0.1,1.5-0.6,2.2-1.1c1.8-1.4,3.5-1.4,5.1,0.2
		c1.2,1.1,2.4,2.3,3.4,3.5C127.4,40.8,127.8,41.7,128.3,42.6z M89.3,77.8c5.2-4.6,12.8-1,13.1,5.5c1.7,0,3.5,0,5.2,0
		c0.3-6.4,7.7-10.2,13.1-5.5c1.2-1.2,2.5-2.5,3.8-3.7c-2.1-2.4-2.8-5.1-1.5-8.2c1.3-3.1,3.8-4.5,7-4.8c0-1.8,0-3.5,0-5.2
		c-6.5-0.2-10.2-7.8-5.6-13c-1.3-1.3-2.5-2.5-3.8-3.8c-2.3,2-5.1,2.7-8.1,1.4c-3.1-1.3-4.5-3.7-4.8-7c-1.8,0-3.5,0-5.3,0
		c-0.3,3.3-1.7,5.7-4.8,7c-3.1,1.3-5.8,0.5-8.1-1.5c-1.3,1.3-2.6,2.5-3.8,3.8c4.4,4.8,1.4,12.7-5.5,13c0,1.7,0,3.5,0,5.2
		c3.3,0.3,5.7,1.7,7,4.8c1.3,3.1,0.5,5.8-1.5,8.2C86.9,75.3,88.1,76.5,89.3,77.8z"/>
	<path d="M59.8,107.3c0,1.7,0,3.2,0,4.7c0,0.9-0.2,1.7-1.1,2c-1,0.4-1.6-0.2-2.2-0.8c-3.3-3.7-6.7-7.4-10-11.2c-1-1.1-1-1.7,0-2.8
		c3.4-3.8,6.8-7.6,10.1-11.3c0.6-0.7,1.4-1.1,2.1-0.6c0.5,0.3,1,1.2,1,1.8c0.1,1.5,0,3.1,0,4.8c1.9,0,3.7-0.1,5.5,0
		c0.8,0.1,1.8,0.4,2.3,0.9c3.5,3.5,7.4,6.5,11.7,9c0.6,0.3,1.1,1,1.3,1.7c0.2,1.1-0.6,1.7-1.9,1.7c-4.1,0-8.1,0-12.2,0
		C64.3,107.3,62.1,107.3,59.8,107.3z M56.4,108c0-0.7,0-1,0-1.3c0-2.3,0.4-2.7,2.7-2.7c4.2,0,8.4,0,12.6,0c0.3,0,0.7,0,0.9-0.1
		c-2.4-2.1-4.7-4.2-7-6.2c-0.3-0.2-0.8-0.3-1.2-0.3c-2,0-3.9,0-5.9,0c-1.5,0-2.1-0.7-2.1-2.1c0-0.5,0-1.1,0-1.9
		c-2.3,2.6-4.5,5-6.6,7.4C51.9,103,54,105.3,56.4,108z"/>
	<path d="M150.2,22.8c-1.9,0-3.7,0.1-5.5,0c-0.8-0.1-1.7-0.4-2.3-0.9c-3.5-3.5-7.4-6.5-11.7-9c-0.5-0.3-1-0.7-1.2-1.1
		c-0.6-1.2,0.3-2.3,1.9-2.3c5.8,0,11.6,0,17.4,0c0.4,0,0.9,0,1.5,0c0-1.6,0-3,0-4.5c0-1,0.1-1.9,1.1-2.3c1-0.4,1.6,0.3,2.2,0.9
		c3.3,3.7,6.6,7.3,9.8,11c1.1,1.2,1.1,1.8,0,3c-3.3,3.7-6.7,7.4-10,11.2c-0.6,0.7-1.3,1.1-2.2,0.7c-0.9-0.3-1-1.1-1-2
		C150.2,26,150.2,24.5,150.2,22.8z M137.1,12.8c0.5,0.4,0.7,0.6,0.9,0.8c2,1.7,4,3.4,6,5.1c0.5,0.4,1.2,0.7,1.8,0.7
		c1.9,0.1,3.8,0,5.6,0c1.6,0,2.2,0.6,2.2,2.2c0,0.5,0,1.1,0,1.9c2.3-2.6,4.4-5,6.6-7.4c-2.2-2.4-4.3-4.8-6.6-7.4c0,0.8,0,1.2,0,1.6
		c0,1.9-0.5,2.4-2.4,2.4c-3.2,0-6.5,0-9.7,0C140.1,12.8,138.8,12.8,137.1,12.8z"/>
	<path d="M105,73.1c-8.1,0-14.8-6.7-14.8-14.8c0-8.1,6.7-14.7,14.7-14.7c8.1,0,14.8,6.7,14.8,14.8C119.7,66.4,113.1,73.1,105,73.1z
		 M105.1,47c-6.3,0-11.4,4.9-11.4,11.2c0,6.3,4.9,11.4,11.2,11.4c6.3,0,11.4-4.9,11.4-11.2C116.3,52.1,111.4,47.1,105.1,47z"/>
</g>
</svg>
