<?xml version="1.0" encoding="utf-8"?>
<!-- Generator: Adobe Illustrator 27.3.1, SVG Export Plug-In . SVG Version: 6.00 Build 0)  -->
<svg version="1.1" id="Layer_1" xmlns="http://www.w3.org/2000/svg" xmlns:xlink="http://www.w3.org/1999/xlink" x="0px" y="0px"
	 viewBox="0 0 210 118" style="enable-background:new 0 0 210 118;" xml:space="preserve">
<style type="text/css">
	.st0{fill:#FFFFFF;}
</style>
<g>
	<path class="st0" d="M115.6,104.8c0,6.6-5,10-9.6,10.3c-7.2,0.4-11.6-4.4-11.5-10.3c-0.5,0-0.9,0-1.4,0c-1.2,0-2-0.7-2-1.9
		c0-4.3,0-8.6,0-13c0-0.4,0.1-0.8,0.3-1c0.8-0.7,0.5-1.4,0.1-2.2c-0.9-2-2.4-3.4-4.2-4.5C80.5,78,75.8,72.1,73.1,64.6
		C66.2,45.1,78.7,23.9,99,20.2c19.7-3.6,36.7,11.6,39.4,28c2.2,13.5-4,26.8-15.8,34.1c-2,1.2-3.5,2.8-4.3,5
		c-0.2,0.5-0.3,0.9,0.2,1.4c0.3,0.4,0.5,1,0.5,1.5c0,4.1,0,8.3,0,12.4c0,1.6-0.7,2.2-2.3,2.2C116.4,104.8,116,104.8,115.6,104.8z
		 M114.3,88c0.9-4,3.2-6.8,6.6-8.9c10.3-6.3,15.7-18.2,13.9-30.2c-2.2-14.5-17.3-28.4-35.1-25.2c-17.5,3.2-28.5,20.6-23.8,37.6
		c2.2,7.8,6.8,13.8,13.7,18.1c2.9,1.8,4.9,4.4,5.8,7.8c0.1,0.3,0.2,0.5,0.3,0.8C101.9,88,108.1,88,114.3,88z M94.7,101.2
		c6.9,0,13.7,0,20.6,0c0-3.2,0-6.3,0-9.5c-6.9,0-13.7,0-20.6,0C94.7,94.9,94.7,98,94.7,101.2z M98.1,104.8c0,2.7,0.9,4.7,3.2,5.8
		c2.7,1.4,5.6,1.3,8.2-0.4c1.8-1.2,2.6-3.1,2.5-5.4c-4.1,0-8.1,0-12.2,0C99.2,104.8,98.7,104.8,98.1,104.8z"/>
	<path class="st0" d="M132.2,11.1c-0.3,0.7-0.4,1.1-0.6,1.4c-1.1,1.9-2.1,3.7-3.2,5.6c-0.7,1.2-1.6,1.5-2.6,1
		c-1-0.5-1.2-1.6-0.5-2.8c1.1-1.9,2.2-3.8,3.3-5.7c0.5-0.8,1.2-1.3,2-0.9C131.3,10,131.7,10.6,132.2,11.1z"/>
	<path class="st0" d="M150.5,30.2c-0.2,0.3-0.6,0.9-1.1,1.3c-1.9,1.2-3.8,2.3-5.8,3.4c-1.1,0.6-2.1,0.3-2.6-0.6
		c-0.5-0.9-0.2-1.9,0.8-2.5c1.9-1.1,3.8-2.3,5.8-3.3C149,27.6,150.5,28.4,150.5,30.2z"/>
	<path class="st0" d="M85.3,17.7c-0.5,0.5-0.9,1.1-1.4,1.5c-0.7,0.4-1.5,0.1-2-0.5c-1.3-2.2-2.6-4.4-3.8-6.7c-0.5-0.8,0-1.6,0.8-2.1
		c0.8-0.5,1.7-0.4,2.2,0.3c1.4,2.2,2.7,4.5,4,6.8c0.1,0.1,0,0.3,0.1,0.4C85.2,17.5,85.2,17.6,85.3,17.7z"/>
	<path class="st0" d="M150.5,80c0,1.6-1.2,2.6-2.4,2c-2.3-1.2-4.5-2.5-6.7-3.8c-0.8-0.5-0.9-1.4-0.4-2.3c0.5-0.9,1.4-1.1,2.2-0.7
		c2.2,1.2,4.3,2.4,6.5,3.7C150.2,79.2,150.3,79.8,150.5,80z"/>
	<path class="st0" d="M69.2,33c0,1.6-1.3,2.6-2.4,2c-2.2-1.2-4.4-2.4-6.6-3.8c-0.8-0.5-0.9-1.4-0.5-2.3c0.4-0.8,1.4-1.2,2.3-0.7
		c2.1,1.2,4.2,2.4,6.3,3.6C68.8,32.2,69,32.8,69.2,33z"/>
	<path class="st0" d="M61,82.2c-0.4-0.3-1.1-0.7-1.3-1.3c-0.2-0.6,0-1.6,0.4-1.9c2.2-1.4,4.4-2.7,6.7-3.9c0.8-0.4,1.7-0.1,2.2,0.8
		c0.4,0.8,0.3,1.7-0.5,2.2c-2.1,1.3-4.4,2.6-6.6,3.8C61.8,82.1,61.5,82.1,61,82.2z"/>
	<path class="st0" d="M106.8,8.2c0,1.2,0,2.3,0,3.5c0,1.1-0.8,1.9-1.8,1.9c-1,0-1.8-0.8-1.8-1.9c0-2.3,0-4.6,0-6.9
		c0-1.1,0.8-1.9,1.8-1.9c1,0,1.7,0.8,1.8,1.9C106.8,5.9,106.8,7,106.8,8.2z"/>
	<path class="st0" d="M58,56.9c-1.1,0-2.2,0-3.2,0c-1.2,0-2-0.8-2-1.8c0-1,0.8-1.8,2-1.8c2.2,0,4.5,0,6.7,0c1.2,0,1.9,0.7,1.9,1.7
		c0,1.1-0.7,1.8-1.9,1.9C60.3,57,59.1,56.9,58,56.9z"/>
	<path class="st0" d="M151.9,53.3c1.2,0,2.3,0,3.5,0c1.1,0,1.9,0.8,1.9,1.8c0,1-0.8,1.8-1.9,1.8c-2.3,0-4.5,0-6.8,0
		c-1.1,0-1.9-0.8-1.9-1.8c0-1.1,0.7-1.8,2-1.8C149.7,53.3,150.8,53.3,151.9,53.3C151.9,53.3,151.9,53.3,151.9,53.3z"/>
	<path class="st0" d="M104,59.8c1-1.7,1.9-3.5,3.1-5.1c2.9-3.7,6.9-5.5,11.4-6.2c2.7-0.4,5.4-0.4,8.1-0.5c1.4,0,2,0.6,2.1,2.1
		c0.3,3.8-0.1,7.5-1.2,11.2c-2.1,6.6-6.7,10.5-13.3,12c-2.5,0.6-5.1,0.7-7.9,1.1c0,2.2,0,4.5,0,6.8c0,0.4,0,0.9,0,1.3
		c-0.2,1-0.9,1.6-1.9,1.6c-1-0.1-1.6-0.6-1.7-1.6c-0.1-1.2-0.1-2.5-0.1-3.7c0-1.5,0-3,0-4.5c-1.9-0.3-3.8-0.4-5.6-0.7
		c-8.3-1.7-11.8-6.9-12.8-14.3c-0.2-1.7-0.2-3.3-0.2-5c0-1.6,0.7-2.3,2.4-2.3c3.7-0.1,7.4,0.3,10.8,1.8c2.8,1.2,5,3.1,6.5,5.7
		C103.8,59.5,104,59.7,104,59.8z M106.4,70.4c13.3,0.3,19.2-6.8,18.6-18.7C112.5,51.2,105.8,57.7,106.4,70.4z M87.7,55.5
		c0,9.7,4.5,15.2,14.8,14.8C103,60.1,97.2,55.2,87.7,55.5z"/>
	<path class="st0" d="M119.5,34.7c0.7,0.3,1.1,0.5,1.5,0.7c2.4,1.9,4.4,4.3,5.9,6.9c0.6,1.1,0.4,2.1-0.5,2.6
		c-0.9,0.6-1.9,0.3-2.6-0.8c-1.4-2.4-3.2-4.4-5.2-6.2c-0.4-0.4-0.6-1.4-0.5-2C118.3,35.6,119,35.2,119.5,34.7z"/>
	<path class="st0" d="M116.6,33.3c0.1,1.5-1.2,2.5-2.4,2.1c-1-0.3-2-0.7-2.9-1.1c-0.9-0.4-1.3-1.3-1-2.2c0.3-0.9,1.2-1.5,2.1-1.2
		c1.1,0.3,2.3,0.8,3.3,1.3C116.2,32.4,116.4,33,116.6,33.3z"/>
</g>
</svg>
