<?xml version="1.0" encoding="utf-8"?>
<!-- Generator: Adobe Illustrator 27.3.1, SVG Export Plug-In . SVG Version: 6.00 Build 0)  -->
<svg version="1.1" id="Layer_1" xmlns="http://www.w3.org/2000/svg" xmlns:xlink="http://www.w3.org/1999/xlink" x="0px" y="0px"
	 viewBox="0 0 210 118" style="enable-background:new 0 0 210 118;" xml:space="preserve">
<style type="text/css">
	.st0{fill:#FFFFFF;}
</style>
<g>
	<path class="st0" d="M122.2,2.6c1.5,0.7,2.4,1.9,2.9,3.5c0.5,1.6,1.7,2.4,3.3,2.9c2.4,0.8,3.4,1.9,3.3,4.5c-0.1,4.5,0,8.9-0.4,13.3
		c-0.8,8.1-4,15.4-9,21.8c-0.2,0.2-0.3,0.4-0.5,0.6c0,0.1,0,0.1-0.1,0.3c2.5,0.5,5,1,7.5,1.5c3.9,0.8,7.8,1.6,11.8,2.3
		c0.4,0.1,0.9-0.2,1.3-0.3c0.9-0.3,1.7-1,2.6-1c4.5-0.1,8.9-0.1,13.4,0c2.2,0,3.7,1.6,3.7,3.8c0,9.5,0,18.9,0,28.4
		c0,2.3-1.6,3.8-3.9,3.9c-4.4,0-8.8,0.1-13.1,0c-0.9,0-1.8-0.7-2.7-1c-0.4-0.2-0.9-0.4-1.3-0.3c-1.6,0.3-3.3,0.5-4.9,1
		c-1.4,0.5-2.6,1.3-3.9,2c0.7,2.4,0.4,4.6-1.1,6.5c-0.6,0.7-1.5,1.2-2.3,1.9c-0.2,0.2-0.5,0.5-0.5,0.8c0.4,4.3-0.5,6.1-4,8
		c0,1.3,0.2,2.5,0,3.7c-0.8,4.3-5.3,6.5-9.3,4.7c-2.2-1-4.3-2.1-6.4-3.1c-3.9,5.9-8.8,6.1-12.6,0.7c-3.8,1.3-6.8,0.1-8.9-3.3
		c-4.6,0.9-6.5,0.2-8.7-3c-1.6,0-3.1,0.2-4.4,0c-4-0.8-6.1-4.8-4.8-8.6c0.7-1.9,1.4-3.8,2.2-5.9c-1-0.4-2-0.8-3-1.2
		c-0.2-0.1-0.4,0.2-0.7,0.2c-1,0.3-1.9,0.9-2.9,0.9C60.8,92,56.9,91.9,53,92c-2.3,0.1-4-0.6-5.1-2.7c0-10.3,0-20.5,0-30.8
		c0.8-1.5,1.9-2.7,3.8-2.7c4.4,0,8.8,0,13.3,0.1c0.9,0,1.8,0.5,2.6,1c0.5,0.4,0.9,0.5,1.6,0.4c4.4-0.8,8.8-1.6,13.2-2.3
		c3.1-0.5,6.2-1.1,9.3-1.7c-1.4-1.6-2.7-3-3.9-4.5c-5.1-6.4-8.3-13.7-9.1-21.9c-0.4-4.5-0.3-9-0.4-13.5c0-2.5,0.9-3.7,3.3-4.4
		c1.5-0.5,2.8-1.4,3.3-2.9c0.5-1.6,1.4-2.8,2.9-3.5C99.3,2.6,110.7,2.6,122.2,2.6z M82,13c0.2,4.9,0,9.8,0.7,14.6
		c2.1,13.4,9.4,23.3,21.4,29.6c0.4,0.2,1.1,0.2,1.5,0c3.6-1.8,6.9-4,9.8-6.9c6.9-6.7,11.1-14.9,12-24.6c0.4-4.1,0.2-8.2,0.3-12.4
		c0-0.7-0.4-0.8-0.9-0.9c-2.7-0.9-4.6-2.6-5.5-5.3c-0.3-0.8-0.7-1-1.4-1c-6.4,0-12.8,0-19.2,0c-3.9,0-7.9,0-11.8,0
		C87.2,10.5,86.3,11.4,82,13z M68.9,61.3c0,0.5,0,0.9,0,1.3c0,6.9,0,13.9,0,20.8c0,1.1-0.3,2.6,0.2,3.4c0.5,0.8,2,0.9,3,1.4
		c0.6,0.3,1,0.2,1.6-0.3c2.6-2.3,6.3-2.2,8.8,0.1c0.4,0.3,0.7,0.7,1,1.1c4.5-2.3,7.1-1.6,10.2,2.6c2.2-0.9,4.4-0.8,6.5,0.6
		c2,1.4,2.9,3.4,3,5.8c2.8-0.2,5.1,0.8,6.5,3.1c1.5,2.4,1.1,4.8,0,7.2c2.3,1.1,4.4,2.2,6.5,3.2c1.7,0.8,3.3,0.3,4-1.2
		c0.7-1.5,0.1-3-1.6-3.9c-1.5-0.8-3.1-1.5-4.6-2.2c-1.2-0.6-1.7-1.7-1.2-2.7c0.5-1,1.6-1.3,2.9-0.7c1.5,0.7,2.9,1.4,4.4,2.1
		c1.8,0.8,3.5,0.3,4.2-1.2c0.7-1.5,0-3.1-1.7-3.9c-1.6-0.8-3.1-1.5-4.7-2.3c-1.3-0.6-1.7-1.6-1.3-2.7c0.5-1.1,1.6-1.4,3-0.8
		c1.6,0.8,3.2,1.6,4.8,2.3c1.7,0.8,3.3,0.2,4-1.3c0.7-1.5,0.1-3.1-1.6-3.9c-1.5-0.8-3.1-1.5-4.6-2.2c-1.3-0.7-1.8-1.7-1.3-2.8
		c0.5-1.1,1.6-1.3,3-0.7c1.6,0.7,3.1,1.5,4.7,2.2c2.1,0.9,4.2-0.5,4.1-2.6c-0.1-1.4-1-2.2-2.1-2.7c-6.5-3.3-13.1-6.7-19.6-10
		c-2-1-2.2-1-3.8,0.5c-3.4,3.2-6.9,6.5-10.3,9.7c-1.9,1.8-4.2,2.6-6.8,2.1c-5.9-1.2-8.2-8-4.2-12.6c3.2-3.7,6.5-7.3,9.7-10.9
		c0.5-0.6,1-1.1,1.8-2c-1-0.3-1.8-0.8-2.5-0.7C86.3,58.2,77.7,59.7,68.9,61.3z M141.1,57.5c-0.4-0.1-0.6-0.2-0.9-0.3
		c-6.9-1.4-13.7-2.7-20.6-4.1c-0.8-0.2-1.3,0-1.9,0.5c-2.7,2.5-5.7,4.6-8.9,6.5c-2.6,1.6-5,1.9-7.5,0c-0.5-0.4-0.9-0.3-1.3,0.2
		c-3.7,4.1-7.4,8.3-11,12.4c-1.6,1.8-1.5,3.9,0,5.4c1.6,1.5,3.7,1.5,5.5-0.2c3.5-3.3,7.1-6.7,10.6-10c2.2-2,4.5-2.4,7.1-1.1
		c6.9,3.5,13.7,7,20.6,10.6c0.8,0.4,1.6,1,2.2,1.6c1.2,1.2,1.6,2.9,1.7,4.6c1.5-0.3,2.9-0.6,4.4-0.9
		C141.1,74.3,141.1,65.9,141.1,57.5z M158.2,84.3c0-9.5,0-19,0-28.4c-4.4,0-8.8,0-13.2,0c0,9.5,0,18.9,0,28.4
		C149.4,84.3,153.7,84.3,158.2,84.3z M51.8,88.1c4.4,0,8.8,0,13.2,0c0-9.5,0-18.9,0-28.4c-4.4,0-8.8,0-13.2,0
		C51.8,69.2,51.8,78.6,51.8,88.1z M87.7,91.7c-1.3,0-2.2,0.6-2.7,1.8c-1.2,3-2.3,5.9-3.4,8.9c-0.5,1.5,0.2,3,1.6,3.6
		c1.5,0.6,3.1,0,3.7-1.6c1.2-3,2.3-5.9,3.4-8.9C90.9,93.5,89.6,91.7,87.7,91.7z M99.3,98c0-1.5-0.9-2.6-2.1-2.9
		c-1.4-0.3-2.7,0.3-3.3,1.7c-1.2,3-2.3,6-3.4,9c-0.2,0.4-0.2,1-0.1,1.4c0.2,1.3,1.2,2.2,2.5,2.3c1.1,0.1,2.3-0.5,2.8-1.7
		c1.2-3,2.3-6.1,3.5-9.1C99.3,98.5,99.3,98.2,99.3,98z M77.6,90.1c-0.7,0-1.7,0.5-2.1,1.6c-1,2.5-2,5-2.8,7.6
		c-0.5,1.4,0.3,2.8,1.6,3.4c1.3,0.5,2.9,0,3.5-1.3c1.1-2.6,2.1-5.2,3-7.9C81.3,91.8,79.9,90.2,77.6,90.1z M104.2,101.9
		c-1.3,0-2.2,0.6-2.7,1.7c-0.7,1.8-1.4,3.7-2.1,5.5c-0.5,1.4,0.2,2.9,1.6,3.5c1.4,0.6,3,0,3.6-1.4c0.8-1.8,1.5-3.7,2.1-5.6
		C107.3,103.8,106,102,104.2,101.9z"/>
	<path class="st0" d="M101.2,38c1.6-1.6,3-3.1,4.5-4.5c4.2-4.2,8.4-8.4,12.6-12.6c0.3-0.3,0.5-0.5,0.8-0.8c0.8-0.5,1.8-0.4,2.4,0.3
		c0.7,0.7,0.8,1.5,0.2,2.3c-0.2,0.3-0.5,0.6-0.8,0.9c-5.9,5.9-11.9,11.9-17.8,17.8c-1.6,1.6-2.3,1.6-4,0c-2.2-2.2-4.4-4.4-6.6-6.6
		c-1.1-1.1-1.2-2.1-0.3-3c0.9-0.9,2-0.8,3,0.3C97.2,33.9,99.1,35.9,101.2,38z"/>
</g>
</svg>
