<svg width="81" height="22" viewBox="0 0 81 22" fill="none" xmlns="http://www.w3.org/2000/svg">
<g clip-path="url(#clip0_41924_122070)">
<path d="M16.8662 15.2273C16.4942 14.8966 16.0188 14.7106 15.5227 14.7106C14.9647 14.7106 14.4479 14.938 14.0552 15.3514C12.6084 16.9222 11.3062 17.5216 9.44595 17.5216C7.50304 17.5216 6.15953 16.9016 4.69201 15.3307C4.31997 14.938 3.78257 14.6899 3.24516 14.6899C2.7491 14.6899 2.25304 14.876 1.88099 15.2273C1.09556 15.9921 1.05422 17.2529 1.79831 18.0384C4.0306 20.4153 6.3869 21.4901 9.44595 21.4901C12.443 21.4901 14.758 20.4153 16.9696 18.0384C17.7343 17.2323 17.6723 15.9714 16.8662 15.2273Z" fill="url(#paint0_linear_41924_122070)"/>
<path d="M16.8247 11.2796C18.069 11.2796 19.0777 10.2709 19.0777 9.02663C19.0777 7.78236 18.069 6.77368 16.8247 6.77368C15.5805 6.77368 14.5718 7.78236 14.5718 9.02663C14.5718 10.2709 15.5805 11.2796 16.8247 11.2796Z" fill="url(#paint1_linear_41924_122070)"/>
<path d="M1.0954 10.9281C0.0412629 10.2874 -0.310115 8.90256 0.330633 7.84842L4.09244 1.58563C4.73319 0.531497 6.11804 0.180119 7.17217 0.820867C8.2263 1.46162 8.57768 2.84646 7.93693 3.90059L4.17512 10.1427C3.53437 11.2175 2.14953 11.5482 1.0954 10.9281Z" fill="url(#paint2_linear_41924_122070)"/>
<path d="M8.35052 10.9281C7.29639 10.2874 6.94501 8.90256 7.58576 7.84842L11.3476 1.58563C11.9883 0.531497 13.3732 0.180119 14.4273 0.820867C15.4814 1.46162 15.8328 2.84646 15.1921 3.90059L11.4509 10.1427C10.8102 11.2175 9.42533 11.5482 8.35052 10.9281Z" fill="url(#paint3_linear_41924_122070)"/>
<path d="M44.1703 2.98938H41.1733C41.0286 2.98938 40.8839 3.03072 40.7186 3.1134C40.5532 3.19607 40.4499 3.29942 40.3465 3.42343C40.3465 3.42343 36.0266 8.81812 35.9026 8.81812C35.7786 8.81812 31.4381 3.42343 31.4381 3.42343C31.376 3.29942 31.252 3.21674 31.0867 3.1134C30.9213 3.03072 30.7766 2.98938 30.6319 2.98938H27.6349C27.4902 2.98938 27.3662 3.03072 27.2628 3.13406C27.1595 3.23741 27.1182 3.36143 27.1182 3.50611V18.2433C27.1182 18.388 27.1595 18.512 27.2628 18.6154C27.3662 18.7187 27.4902 18.7601 27.6349 18.7601H30.88C31.0247 18.7601 31.1487 18.7187 31.252 18.6154C31.3554 18.512 31.3967 18.388 31.3967 18.2433V10.2236C31.3967 10.2236 35.7373 15.2256 35.9026 15.2256C36.068 15.2256 40.4085 10.2236 40.4085 10.2236V18.2433C40.4085 18.388 40.4499 18.512 40.5532 18.6154C40.6566 18.7187 40.7806 18.7601 40.9253 18.7601H44.1703C44.315 18.7601 44.439 18.7187 44.5424 18.6154C44.6457 18.512 44.6871 18.388 44.6871 18.2433V3.50611C44.6871 3.36143 44.6457 3.23741 44.5424 3.13406C44.4184 3.03072 44.2944 2.98938 44.1703 2.98938Z" fill="white"/>
<path d="M61.3464 2.98938H58.1014C57.9567 2.98938 57.8326 3.03072 57.7293 3.13406C57.626 3.23741 57.5846 3.36143 57.5846 3.50611V12.2492C57.5846 12.8073 57.5019 13.2827 57.3159 13.6341C57.1299 14.0061 56.9232 14.2955 56.6545 14.5022C56.3858 14.7089 56.1171 14.8536 55.8071 14.9362C55.497 15.0189 55.2283 15.0602 54.9803 15.0602C54.7323 15.0602 54.4636 15.0189 54.1535 14.9362C53.8435 14.8536 53.5748 14.7089 53.3061 14.5022C53.0374 14.2955 52.81 14.0061 52.6447 13.6341C52.4586 13.262 52.376 12.8073 52.376 12.2492V3.50611C52.376 3.36143 52.3346 3.23741 52.2313 3.13406C52.1279 3.03072 52.0039 2.98938 51.8592 2.98938H48.6141C48.4695 2.98938 48.3454 3.03072 48.2421 3.13406C48.1388 3.23741 48.0974 3.36143 48.0974 3.50611V12.2492C48.0974 13.262 48.2628 14.1921 48.5935 15.0396C48.9242 15.8663 49.3996 16.5898 49.999 17.1685C50.5984 17.7679 51.3218 18.2226 52.1693 18.5327C53.0167 18.8634 53.9468 19.0081 55.001 19.0081C56.0344 19.0081 56.9852 18.8427 57.8326 18.5327C58.6801 18.202 59.4035 17.7473 60.0029 17.1685C60.6023 16.5691 61.0777 15.8663 61.3878 15.0396C61.7185 14.2128 61.8632 13.2827 61.8632 12.2492V3.50611C61.8632 3.36143 61.8218 3.23741 61.7185 3.13406C61.6151 3.03072 61.4911 2.98938 61.3464 2.98938Z" fill="white"/>
<path d="M74.7816 10.9264L80.569 3.56812C80.755 3.32009 80.5897 2.98938 80.2796 2.98938H76.8899C76.4351 2.98938 76.0011 3.19607 75.7117 3.54745L72.3013 7.82599L68.8908 3.54745C68.6015 3.19607 68.1674 2.98938 67.7127 2.98938H64.3229C64.0129 2.98938 63.8475 3.34076 64.0336 3.56812L69.821 10.9264L64.0542 18.1606C63.8682 18.4087 64.0336 18.7601 64.3436 18.7601H67.9194C68.3741 18.7601 68.8082 18.5534 69.0975 18.1813L72.3013 14.0888L75.505 18.1813C75.7944 18.5534 76.2284 18.7601 76.6832 18.7601H80.2589C80.569 18.7601 80.7343 18.4087 80.5483 18.1606L74.7816 10.9264Z" fill="white"/>
</g>
<defs>
<linearGradient id="paint0_linear_41924_122070" x1="10.9107" y1="18.2448" x2="-0.423161" y2="6.68652" gradientUnits="userSpaceOnUse">
<stop stop-color="#5ACEFF"/>
<stop offset="1" stop-color="#00EEEA"/>
</linearGradient>
<linearGradient id="paint1_linear_41924_122070" x1="18.4007" y1="10.6426" x2="8.02777" y2="0.0642464" gradientUnits="userSpaceOnUse">
<stop stop-color="#5ACEFF"/>
<stop offset="1" stop-color="#00EEEA"/>
</linearGradient>
<linearGradient id="paint2_linear_41924_122070" x1="13.5123" y1="15.436" x2="3.13937" y2="4.8577" gradientUnits="userSpaceOnUse">
<stop stop-color="#5ACEFF"/>
<stop offset="1" stop-color="#00EEEA"/>
</linearGradient>
<linearGradient id="paint3_linear_41924_122070" x1="17.2186" y1="11.8019" x2="6.84568" y2="1.22356" gradientUnits="userSpaceOnUse">
<stop stop-color="#5ACEFF"/>
<stop offset="1" stop-color="#00EEEA"/>
</linearGradient>
<clipPath id="clip0_41924_122070">
<rect width="80.6309" height="21" fill="white" transform="translate(0 0.5)"/>
</clipPath>
</defs>
</svg>
